<?xml version="1.0" standalone="no"?>
<!DOCTYPE svg PUBLIC "-//W3C//DTD SVG 20010904//EN"
 "http://www.w3.org/TR/2001/REC-SVG-20010904/DTD/svg10.dtd">
<svg version="1.0" xmlns="http://www.w3.org/2000/svg"
 width="374.000000pt" height="360.000000pt" viewBox="0 0 374.000000 360.000000"
 preserveAspectRatio="xMidYMid meet">

<g transform="translate(0.000000,360.000000) scale(0.100000,-0.100000)"
fill="#000000" stroke="none">
<path d="M728 3576 c-177 -63 -337 -188 -447 -348 -17 -27 -29 -48 -25 -48 4
0 0 -8 -9 -18 -21 -23 -63 -125 -90 -217 -20 -68 -21 -95 -23 -830 -2 -617 0
-744 10 -674 l12 86 556 556 c455 456 562 557 585 559 15 1 3 4 -27 8 l-55 7
45 3 c25 1 59 6 75 10 23 6 14 8 -40 10 -79 2 -77 5 10 16 57 7 58 8 25 15
-30 5 -31 7 -8 8 21 1 114 88 450 424 233 233 429 431 437 440 13 16 -33 17
-700 17 l-714 0 -67 -24z m549 -862 c-3 -3 -12 -4 -19 -1 -8 3 -5 6 6 6 11 1
17 -2 13 -5z"/>
<path d="M3735 1860 c0 -487 1 -686 2 -443 2 244 2 642 0 885 -1 244 -2 45 -2
-442z"/>
<path d="M2428 2643 c18 -2 45 -2 60 0 15 2 0 4 -33 4 -33 0 -45 -2 -27 -4z"/>
<path d="M2323 2633 c9 -2 23 -2 30 0 6 3 -1 5 -18 5 -16 0 -22 -2 -12 -5z"/>
<path d="M2573 2633 c9 -2 23 -2 30 0 6 3 -1 5 -18 5 -16 0 -22 -2 -12 -5z"/>
<path d="M2268 2623 c7 -3 16 -2 19 1 4 3 -2 6 -13 5 -11 0 -14 -3 -6 -6z"/>
<path d="M2205 2610 c-13 -5 -14 -9 -5 -9 8 0 24 4 35 9 13 5 14 9 5 9 -8 0
-24 -4 -35 -9z"/>
<path d="M2150 2590 c-8 -5 -10 -10 -5 -10 6 0 17 5 25 10 8 5 11 10 5 10 -5
0 -17 -5 -25 -10z"/>
<path d="M2057 2548 c-31 -17 -74 -46 -95 -65 l-37 -34 40 30 c23 17 70 47
105 66 36 19 61 35 55 35 -5 -1 -36 -15 -68 -32z"/>
<path d="M2722 2505 c0 -16 2 -22 5 -12 2 9 2 23 0 30 -3 6 -5 -1 -5 -18z"/>
<path d="M1873 2408 c-21 -24 -49 -57 -62 -75 -14 -18 -29 -29 -35 -26 -6 3
-8 3 -4 -2 4 -4 2 -17 -4 -29 -13 -26 -3 -16 47 49 21 28 54 67 74 88 19 20
32 37 29 37 -3 0 -23 -19 -45 -42z"/>
<path d="M2733 2395 c0 -27 2 -38 4 -22 2 15 2 37 0 50 -2 12 -4 0 -4 -28z"/>
<path d="M2249 2321 c-16 -16 -29 -35 -29 -43 0 -7 5 -4 11 7 6 11 23 30 38
42 14 13 22 23 18 23 -5 0 -22 -13 -38 -29z"/>
<path d="M2733 2305 c0 -22 2 -30 4 -17 2 12 2 30 0 40 -3 9 -5 -1 -4 -23z"/>
<path d="M1425 2234 c-16 -8 -21 -11 -10 -7 11 4 94 10 185 13 l165 6 -155 2
c-118 1 -162 -2 -185 -14z"/>
<path d="M1351 2194 c-46 -39 -221 -338 -221 -377 0 -33 23 -77 41 -77 5 0 0
9 -11 20 -38 38 -27 76 75 248 55 93 109 172 128 186 17 14 29 26 25 26 -3 0
-20 -12 -37 -26z"/>
<path d="M2412 2172 l-23 -37 26 28 c14 15 25 32 25 38 0 14 -3 11 -28 -29z"/>
<path d="M2308 2123 c7 -3 16 -2 19 1 4 3 -2 6 -13 5 -11 0 -14 -3 -6 -6z"/>
<path d="M2479 1773 c-13 -16 -12 -17 4 -4 9 7 17 15 17 17 0 8 -8 3 -21 -13z"/>
<path d="M2429 1733 c-13 -16 -12 -17 4 -4 16 13 21 21 13 21 -2 0 -10 -8 -17
-17z"/>
<path d="M1350 1733 c116 -3 166 -7 172 -16 5 -8 8 -7 8 6 0 16 -14 17 -172
15 l-173 -2 165 -3z"/>
<path d="M1506 1685 c-9 -26 -7 -32 5 -12 6 10 9 21 6 23 -2 3 -7 -2 -11 -11z"/>
<path d="M1493 1610 c0 -25 2 -35 4 -22 2 12 2 32 0 45 -2 12 -4 2 -4 -23z"/>
<path d="M1507 1548 c3 -7 35 -40 72 -73 l66 -59 -70 72 c-38 40 -71 72 -72
72 -1 0 0 -6 4 -12z"/>
<path d="M1678 1403 c6 -2 18 -2 25 0 6 3 1 5 -13 5 -14 0 -19 -2 -12 -5z"/>
<path d="M1823 1325 c0 -27 2 -38 4 -22 2 15 2 37 0 50 -2 12 -4 0 -4 -28z"/>
</g>
</svg>
